<svg width="24" height="24" viewBox="0 0 24 24" fill="none" xmlns="http://www.w3.org/2000/svg">
<path d="M15.7726 11.7991H18.068V16.0074H15.7726V11.7991Z" fill="black"/>
<path d="M19.9043 6.99573V4.99786C19.9043 3.89604 19.012 3 17.9149 3H4.98404C3.33884 3 2 4.34456 2 5.99679V17.984C2 20.1826 3.78446 20.9808 4.98404 20.9808H19.9043C21.0014 20.9808 21.8936 20.0847 21.8936 18.9829V8.99359C21.8936 7.89177 21.0014 6.99573 19.9043 6.99573ZM4.98404 4.99786H17.9149V6.99573H4.98404C4.72793 6.98422 4.48611 6.87395 4.30893 6.68787C4.13175 6.5018 4.03286 6.25426 4.03286 5.99679C4.03286 5.73933 4.13175 5.49179 4.30893 5.30572C4.48611 5.11964 4.72793 5.00937 4.98404 4.99786V4.99786ZM19.9043 18.9829H4.99598C4.53644 18.9709 3.98936 18.7881 3.98936 17.984V8.80879C4.30169 8.92167 4.63292 8.99359 4.98404 8.99359H19.9043V18.9829Z" fill="black"/>
</svg>
