<svg width="24" height="24" viewBox="0 0 24 24" fill="none" xmlns="http://www.w3.org/2000/svg">
<path d="M2.03403 14.6713C2.06768 14.7983 2.12614 14.9174 2.20605 15.0217C2.28595 15.126 2.38573 15.2135 2.49961 15.279L4.41198 16.3843V18.5859C4.41198 18.8515 4.51747 19.1061 4.70524 19.2939C4.89301 19.4816 5.14768 19.5871 5.41322 19.5871H7.61495L8.72032 21.4994C8.80896 21.6509 8.93552 21.7768 9.08755 21.8645C9.23958 21.9523 9.41185 21.999 9.58739 22C9.76161 22 9.93483 21.9539 10.089 21.8648L11.9994 20.7605L13.9118 21.8658C14.1417 21.9984 14.4148 22.0344 14.6712 21.9659C14.9276 21.8974 15.1463 21.73 15.2794 21.5004L16.3838 19.5881H18.5855C18.8511 19.5881 19.1058 19.4826 19.2935 19.2949C19.4813 19.1071 19.5868 18.8525 19.5868 18.5869V16.3853L21.4992 15.28C21.6131 15.2142 21.7129 15.1266 21.7929 15.0221C21.8729 14.9177 21.9316 14.7985 21.9655 14.6714C21.9995 14.5443 22.008 14.4118 21.9907 14.2814C21.9734 14.151 21.9305 14.0252 21.8646 13.9114L20.7602 12.0001L21.8656 10.0898C21.9985 9.86001 22.0346 9.58683 21.9661 9.33037C21.8975 9.0739 21.7299 8.85515 21.5002 8.72221L19.5878 7.6169V5.41428C19.5878 5.14875 19.4823 4.89409 19.2945 4.70633C19.1068 4.51857 18.8521 4.41309 18.5865 4.41309H16.3848L15.2805 2.50182C15.1471 2.27246 14.9287 2.10485 14.6727 2.03526C14.5457 2.00084 14.4131 1.99196 14.2827 2.00915C14.1522 2.02634 14.0265 2.06924 13.9128 2.13538L11.9994 3.2397L10.088 2.13438C9.85817 2.00154 9.58498 1.96541 9.3285 2.03394C9.07203 2.10247 8.85327 2.27004 8.72032 2.49982L7.61495 4.41209H5.41322C5.14768 4.41209 4.89301 4.51757 4.70524 4.70533C4.51747 4.89309 4.41198 5.14775 4.41198 5.41328V7.6149L2.49961 8.72021C2.26989 8.85372 2.10244 9.07283 2.03395 9.32954C1.96545 9.58625 2.00148 9.85964 2.13416 10.0898L3.23953 12.0001L2.13416 13.9104C2.00198 14.141 1.96601 14.4144 2.03403 14.6713V14.6713ZM11.9994 13.0013C8.51507 13.0013 7.99442 11.1201 7.99442 9.99773C7.99442 8.7092 9.0247 7.41166 10.9981 7.07926V6.00498H13.0006V7.1153C14.7368 7.52579 15.4036 8.97051 15.4036 9.99773H14.4024L13.4011 10.0158C13.3871 9.6353 13.1859 8.99654 11.9994 8.99654C10.6988 8.99654 9.9969 9.51215 9.9969 9.99773C9.9969 10.3722 9.9969 10.9989 11.9994 10.9989C15.4837 10.9989 16.0043 12.8802 16.0043 14.0025C16.0043 15.291 14.9741 16.5886 13.0006 16.921V18.0073H10.9981V16.926C8.65624 16.5585 7.99442 14.9206 7.99442 14.0025H9.9969C10.0079 14.1457 10.1561 15.0037 11.9994 15.0037C13.3811 15.0037 14.0019 14.418 14.0019 14.0025C14.0019 13.6771 14.0019 13.0013 11.9994 13.0013V13.0013Z" fill="black"/>
</svg>
