<svg width="24" height="24" viewBox="0 0 24 24" fill="none" xmlns="http://www.w3.org/2000/svg">
<path d="M9.16679 4.76074e-08C7.96304 -0.000122636 6.77105 0.236872 5.65888 0.697451C4.54672 1.15803 3.53618 1.83317 2.68495 2.68433C1.83372 3.53548 1.15848 4.54597 0.697799 5.6581C0.237113 6.77023 4.13599e-08 7.96222 4.76116e-08 9.16599C-0.000122649 10.3698 0.2369 11.5619 0.697531 12.6742C1.15816 13.7864 1.83338 14.797 2.68462 15.6483C3.53586 16.4995 4.54645 17.1747 5.65867 17.6354C6.77089 18.096 7.96296 18.333 9.16679 18.3329C11.306 18.3329 13.2705 17.5753 14.8305 16.3478L15.6479 17.1652C15.4801 17.4913 15.4206 17.8625 15.4783 18.2247C15.5359 18.5869 15.7076 18.9213 15.9683 19.1793L20.2598 23.4998C20.9258 24.1667 22.016 24.1667 22.683 23.4998L23.5004 22.6824C23.8204 22.3603 24 21.9248 24 21.4708C24 21.0168 23.8204 20.5812 23.5004 20.2592L19.1799 15.9676C18.9202 15.7086 18.5838 15.5404 18.2208 15.4878C17.8577 15.4353 17.4875 15.5014 17.165 15.6762L16.3476 14.8588C17.4175 13.5086 18.0853 11.8842 18.2743 10.1719C18.4634 8.45962 18.1661 6.72869 17.4165 5.17762C16.6669 3.62654 15.4954 2.31811 14.0363 1.40234C12.5771 0.486578 10.8895 0.000554181 9.16679 4.76074e-08ZM9.16679 1.6927C11.1488 1.6927 13.0496 2.48006 14.4511 3.88158C15.8526 5.28309 16.64 7.18395 16.64 9.16599C16.64 11.148 15.8526 13.0489 14.4511 14.4504C13.0496 15.8519 11.1488 16.6393 9.16679 16.6393C7.18478 16.6393 5.28395 15.8519 3.88246 14.4504C2.48096 13.0489 1.69361 11.148 1.69361 9.16599C1.69361 7.18395 2.48096 5.28309 3.88246 3.88158C5.28395 2.48006 7.18478 1.6927 9.16679 1.6927ZM4.4372 6.80163C3.93896 7.60866 3.67623 8.5389 3.67867 9.48734C3.67757 10.1586 3.80896 10.8234 4.06531 11.4438C4.32166 12.0641 4.69793 12.6277 5.17255 13.1024C5.64718 13.577 6.21081 13.9533 6.83115 14.2096C7.45148 14.466 8.11631 14.5974 8.78753 14.5963C9.84272 14.5941 10.8718 14.268 11.7357 13.6621C11.5028 13.6837 11.269 13.693 11.0351 13.6901C10.1681 13.6924 9.30922 13.5232 8.50778 13.1925C7.70635 12.8618 6.97817 12.3759 6.36507 11.7629C5.75196 11.1499 5.26603 10.4218 4.93519 9.62036C4.60434 8.81896 4.43511 7.96009 4.4372 7.09309C4.4372 6.99593 4.43253 6.89878 4.4372 6.80163Z" fill="black"/>
</svg>
