<svg width="24" height="24" viewBox="0 0 24 24" fill="none" xmlns="http://www.w3.org/2000/svg">
<path fill-rule="evenodd" clip-rule="evenodd" d="M3.34583 17.7891C3.34583 17.5396 3.5458 17.3373 3.79248 17.3373H20.2069C20.4535 17.3373 20.6535 17.5396 20.6535 17.7891C20.6535 18.0387 20.4535 18.241 20.2069 18.241H3.79248C3.5458 18.241 3.34583 18.0387 3.34583 17.7891ZM3.79248 20.1049H20.2069V21.0086H3.79248V20.1049Z" fill="black"/>
<path fill-rule="evenodd" clip-rule="evenodd" d="M3 17.7891C3 17.3521 3.35118 16.9911 3.7928 16.9911H20.2072C20.6488 16.9911 21 17.3521 21 17.7891C21 18.226 20.6488 18.5871 20.2072 18.5871H3.7928C3.35118 18.5871 3 18.226 3 17.7891ZM3.7928 17.6834C3.74107 17.6834 3.69231 17.7269 3.69231 17.7891C3.69231 17.8512 3.74107 17.8948 3.7928 17.8948H20.2072C20.2589 17.8948 20.3077 17.8512 20.3077 17.7891C20.3077 17.7269 20.2589 17.6834 20.2072 17.6834H3.7928ZM3.44665 19.7587H20.5533V21.3547H3.44665V19.7587ZM4.13896 20.451V20.6624H19.861V20.451H4.13896Z" fill="black"/>
<path fill-rule="evenodd" clip-rule="evenodd" d="M11.9999 5.88733C8.569 5.88733 5.78753 8.83122 5.78753 12.4624V17.1616H18.2122V12.4624C18.2122 8.83122 15.4307 5.88733 11.9999 5.88733ZM4.91943 12.4624C4.91943 8.32378 8.08957 4.96854 11.9999 4.96854C15.9101 4.96854 19.0803 8.32378 19.0803 12.4624V17.621C19.0803 17.8747 18.8859 18.0804 18.6462 18.0804H5.35348C5.11376 18.0804 4.91943 17.8747 4.91943 17.621V12.4624Z" fill="black"/>
<path fill-rule="evenodd" clip-rule="evenodd" d="M4.57336 12.4624C4.57336 8.15139 7.88023 4.62239 11.9999 4.62239C16.1196 4.62239 19.4265 8.15139 19.4265 12.4624V17.621C19.4265 18.0472 19.0955 18.4266 18.6463 18.4266H5.35357C4.90443 18.4266 4.57336 18.0472 4.57336 17.621V12.4624ZM11.9999 5.3147C8.29907 5.3147 5.26567 8.4962 5.26567 12.4624V17.621C5.26567 17.7024 5.32327 17.7343 5.35357 17.7343H18.6463C18.6766 17.7343 18.7342 17.7024 18.7342 17.621V12.4624C18.7342 8.4962 15.7008 5.3147 11.9999 5.3147ZM11.9999 6.23349C8.77851 6.23349 6.13377 9.00363 6.13377 12.4624V16.8155H17.8661V12.4624C17.8661 9.00363 15.2214 6.23349 11.9999 6.23349ZM5.44146 12.4624C5.44146 8.65882 8.35966 5.54118 11.9999 5.54118C15.6402 5.54118 18.5584 8.65882 18.5584 12.4624V17.1616C18.5584 17.3528 18.4034 17.5078 18.2123 17.5078H5.78762C5.59644 17.5078 5.44146 17.3528 5.44146 17.1616V12.4624Z" fill="black"/>
<path fill-rule="evenodd" clip-rule="evenodd" d="M8.591 11.7867C8.88066 11.7867 9.11548 12.0183 9.11548 12.304V14.4162C9.11548 14.7019 8.88066 14.9335 8.591 14.9335C8.30134 14.9335 8.06653 14.7019 8.06653 14.4162V12.304C8.06653 12.0183 8.30134 11.7867 8.591 11.7867Z" fill="black"/>
<path fill-rule="evenodd" clip-rule="evenodd" d="M7.72034 12.3039C7.72034 11.8226 8.11465 11.4405 8.59097 11.4405C9.06728 11.4405 9.4616 11.8226 9.4616 12.3039V14.4162C9.4616 14.8976 9.06728 15.2797 8.59097 15.2797C8.11465 15.2797 7.72034 14.8976 7.72034 14.4162V12.3039ZM8.59097 12.1328C8.48796 12.1328 8.41264 12.2139 8.41264 12.3039V14.4162C8.41264 14.5062 8.48796 14.5873 8.59097 14.5873C8.69397 14.5873 8.76929 14.5062 8.76929 14.4162V12.3039C8.76929 12.2139 8.69397 12.1328 8.59097 12.1328Z" fill="black"/>
<path fill-rule="evenodd" clip-rule="evenodd" d="M10.331 3.00377C10.7737 2.58273 11.374 2.34619 11.9999 2.34619C12.6259 2.34619 13.2262 2.58273 13.6688 3.00377C14.1114 3.42481 14.3601 3.99587 14.3601 4.59131V5.49304H13.4315V4.59131C13.4315 4.23014 13.2806 3.88377 13.0122 3.62838C12.7437 3.37299 12.3796 3.22952 11.9999 3.22952C11.6202 3.22952 11.2561 3.37299 10.9876 3.62838C10.7192 3.88377 10.5684 4.23014 10.5684 4.59131V5.49304H9.63977V4.59131C9.63977 3.99587 9.88843 3.42481 10.331 3.00377Z" fill="black"/>
<path fill-rule="evenodd" clip-rule="evenodd" d="M10.0921 2.75293C10.6008 2.26902 11.2872 2 11.9995 2C12.7118 2 13.3983 2.26902 13.907 2.75293C14.4162 3.2374 14.7058 3.89829 14.7058 4.59128V5.83916H13.0849V4.59128C13.0849 4.32765 12.975 4.0711 12.7732 3.87914C12.5708 3.68663 12.2928 3.57563 11.9995 3.57563C11.7062 3.57563 11.4282 3.68663 11.2258 3.87914C11.024 4.0711 10.9141 4.32765 10.9141 4.59128V5.83916H9.29321V4.59128C9.29321 3.89829 9.58276 3.2374 10.0921 2.75293ZM11.9995 2.69231C11.4599 2.69231 10.9457 2.89637 10.5692 3.25454C10.1933 3.61215 9.98552 4.09338 9.98552 4.59128V5.14685H10.2218V4.59128C10.2218 4.13256 10.4135 3.69636 10.7487 3.37754C11.0832 3.05928 11.5335 2.88333 11.9995 2.88333C12.4656 2.88333 12.9158 3.05928 13.2504 3.37754C13.5855 3.69636 13.7772 4.13256 13.7772 4.59128V5.14685H14.0135V4.59128C14.0135 4.09338 13.8057 3.61215 13.4298 3.25454C13.0533 2.89637 12.5391 2.69231 11.9995 2.69231Z" fill="black"/>
</svg>
