<svg width="24" height="24" viewBox="0 0 24 24" fill="none" xmlns="http://www.w3.org/2000/svg">
<path d="M21.4872 15.023L19.4662 12.9914V10.3002C19.4638 8.4403 18.7756 6.64737 17.5344 5.26806C16.2933 3.88874 14.5874 3.02103 12.7467 2.83271V1.29419H11.2535V2.83271C9.41277 3.02103 7.70692 3.88874 6.46576 5.26806C5.22461 6.64737 4.53633 8.4403 4.53401 10.3002V12.9914L2.51295 15.023C2.37292 15.1637 2.29423 15.3546 2.29419 15.5536V17.8051C2.29419 18.0042 2.37285 18.1951 2.51287 18.3358C2.65288 18.4766 2.84278 18.5556 3.0408 18.5556H8.26705V19.1388C8.25081 20.0909 8.58466 21.0155 9.20463 21.7355C9.82459 22.4555 10.6871 22.9202 11.6268 23.0406C12.1458 23.0923 12.6699 23.0343 13.1652 22.8702C13.6606 22.7062 14.1163 22.4397 14.5031 22.0879C14.8899 21.7362 15.1991 21.307 15.411 20.8279C15.6228 20.3488 15.7325 19.8304 15.7331 19.3061V18.5556H20.9594C21.1574 18.5556 21.3473 18.4766 21.4873 18.3358C21.6273 18.1951 21.706 18.0042 21.706 17.8051V15.5536C21.7059 15.3546 21.6273 15.1637 21.4872 15.023ZM14.2399 19.3061C14.2399 19.9032 14.0039 20.4759 13.5839 20.8982C13.1638 21.3204 12.5941 21.5576 12.0001 21.5576C11.406 21.5576 10.8363 21.3204 10.4163 20.8982C9.99625 20.4759 9.76026 19.9032 9.76026 19.3061V18.5556H14.2399V19.3061ZM20.2128 17.0546H3.7874V15.8643L5.80847 13.8327C5.9485 13.692 6.02718 13.5012 6.02723 13.3021V10.3002C6.02723 8.7078 6.65651 7.18067 7.77664 6.0547C8.89677 4.92874 10.416 4.29618 12.0001 4.29618C13.5842 4.29618 15.1034 4.92874 16.2235 6.0547C17.3437 7.18067 17.9729 8.7078 17.9729 10.3002V13.3021C17.973 13.5012 18.0517 13.692 18.1917 13.8327L20.2128 15.8643V17.0546Z" fill="black"/>
<path fill-rule="evenodd" clip-rule="evenodd" d="M19.4661 10.3001V12.9914L21.4872 15.023C21.6272 15.1637 21.7059 15.3545 21.7059 15.5536V17.8051C21.7059 18.0041 21.6273 18.195 21.4872 18.3357C21.3472 18.4765 21.1573 18.5556 20.9593 18.5556H15.7331V19.306C15.7325 19.8303 15.6227 20.3487 15.4109 20.8278C15.1991 21.3069 14.8898 21.7361 14.503 22.0879C14.1163 22.4396 13.6605 22.7061 13.1652 22.8702C12.6698 23.0342 12.1457 23.0923 11.6267 23.0405C10.687 22.9202 9.82452 22.4554 9.20456 21.7354C8.58459 21.0154 8.25074 20.0908 8.26698 19.1387V18.5556H3.04073C2.84271 18.5556 2.65281 18.4765 2.51279 18.3357C2.37278 18.195 2.29412 18.0041 2.29412 17.8051V15.5536C2.29416 15.3545 2.37285 15.1637 2.51287 15.023L4.53394 12.9914V10.3001C4.53626 8.44023 5.22454 6.6473 6.46569 5.26799C7.70684 3.88867 9.4127 3.02096 11.2534 2.83264V1.29412H12.7466V2.83264C14.5873 3.02096 16.2932 3.88867 17.5343 5.26799C18.7755 6.6473 19.4638 8.44023 19.4661 10.3001ZM13.0407 2.57167C14.8528 2.82027 16.5227 3.70405 17.753 5.07125C19.0428 6.50461 19.7578 8.36753 19.7602 10.2997V12.87L21.6956 14.8155C21.6957 14.8155 21.6956 14.8155 21.6956 14.8155C21.8906 15.0115 22 15.277 22 15.5535V17.8051C22 18.0816 21.8908 18.3471 21.6958 18.5432C21.5007 18.7392 21.2358 18.8497 20.9593 18.8497H16.0272V19.306C16.0265 19.8712 15.9083 20.4302 15.6799 20.9467C15.4515 21.4632 15.1181 21.9261 14.7009 22.3055C14.2838 22.6848 13.7921 22.9723 13.2576 23.1494C12.7231 23.3264 12.1576 23.389 11.5975 23.3332L11.5893 23.3324C10.5773 23.2027 9.64888 22.7022 8.98168 21.9274C8.31506 21.1532 7.95603 20.1594 7.97286 19.1362V18.8497H3.04073C2.76421 18.8497 2.49934 18.7392 2.30428 18.5432C2.10928 18.3471 2 18.0816 2 17.8051V15.5536C2.00006 15.277 2.10936 15.0115 2.30436 14.8155C2.30437 14.8155 2.30435 14.8155 2.30436 14.8155L4.23982 12.87V10.3001C4.24223 8.36789 4.95727 6.50461 6.24706 5.07125C7.47732 3.70405 9.14719 2.82027 10.9593 2.57167V1.29412C10.9593 1.13168 11.091 1 11.2534 1H12.7466C12.9091 1 13.0407 1.13168 13.0407 1.29412V2.57167ZM6.02716 13.3021C6.02711 13.5011 5.94843 13.692 5.8084 13.8327L3.78733 15.8643V17.0546H20.2127V15.8643L18.1916 13.8327C18.0516 13.692 17.9729 13.5011 17.9729 13.3021V10.3001C17.9729 8.70773 17.3436 7.18059 16.2235 6.05463C15.1033 4.92867 13.5841 4.29611 12 4.29611C10.4159 4.29611 8.89669 4.92867 7.77657 6.05463C6.65644 7.18059 6.02716 8.70773 6.02716 10.3001V13.3021ZM17.9831 14.0401C17.9831 14.0401 17.9831 14.0401 17.9831 14.0401C17.7881 13.8441 17.6788 13.5787 17.6788 13.3021V10.3001C17.6788 8.78524 17.0801 7.33275 16.015 6.26206C14.9499 5.19142 13.5056 4.59022 12 4.59022C10.4944 4.59022 9.05017 5.19142 7.98508 6.26206C6.91994 7.33275 6.32127 8.78524 6.32127 10.3001V13.3021C6.32122 13.5786 6.21191 13.8441 6.01691 14.0401C6.0169 14.0401 6.01692 14.0401 6.01691 14.0401L4.08145 15.9856V16.7604H19.9186V15.9856L17.9831 14.0401ZM13.3753 20.6907C13.7404 20.3237 13.9457 19.8257 13.9457 19.306V18.8497H10.0543V19.306C10.0543 19.8257 10.2597 20.3237 10.6247 20.6907C10.9897 21.0576 11.4845 21.2634 12 21.2634C12.5156 21.2634 13.0103 21.0576 13.3753 20.6907ZM13.5838 20.8981C14.0039 20.4759 14.2398 19.9032 14.2398 19.306V18.5556H9.76019V19.306C9.76019 19.9032 9.99617 20.4759 10.4162 20.8981C10.8363 21.3203 11.406 21.5575 12 21.5575C12.5941 21.5575 13.1638 21.3203 13.5838 20.8981Z" fill="black"/>
</svg>
