<svg width="24" height="24" viewBox="0 0 24 24" fill="none" xmlns="http://www.w3.org/2000/svg">
<path d="M23.2119 9.33892H16.6326C16.5195 9.33892 16.427 9.43079 16.427 9.54307V10.768C16.427 10.8802 16.5195 10.9721 16.6326 10.9721H23.2119C23.325 10.9721 23.4175 10.8802 23.4175 10.768V9.54307C23.4175 9.43079 23.325 9.33892 23.2119 9.33892ZM19.768 12.8095H16.6326C16.5195 12.8095 16.427 12.9013 16.427 13.0136V14.2385C16.427 14.3508 16.5195 14.4427 16.6326 14.4427H19.768C19.8811 14.4427 19.9737 14.3508 19.9737 14.2385V13.0136C19.9737 12.9013 19.8811 12.8095 19.768 12.8095ZM11.1918 7.05499H10.079C9.91964 7.05499 9.79114 7.18259 9.79114 7.3408V13.6694C9.79114 13.7613 9.83483 13.8455 9.90936 13.8991L13.7362 16.6704C13.8647 16.7623 14.0446 16.7368 14.1371 16.6092L14.7976 15.7135V15.7109C14.8901 15.5833 14.8618 15.4047 14.7333 15.3128L11.4771 12.9753V7.3408C11.4797 7.18259 11.3486 7.05499 11.1918 7.05499V7.05499Z" fill="black"/>
<path d="M19.6665 16.1401H18.1942C18.0515 16.1401 17.9165 16.2143 17.8401 16.3371C17.5166 16.8512 17.1396 17.327 16.7065 17.7618C15.9602 18.5112 15.0916 19.0995 14.1261 19.5087C13.1251 19.9333 12.0629 20.1482 10.9675 20.1482C9.86964 20.1482 8.80743 19.9333 7.8089 19.5087C6.84348 19.0995 5.97485 18.5112 5.2285 17.7618C4.48215 17.0123 3.89627 16.1401 3.48871 15.1707C3.06586 14.1681 2.85189 13.1015 2.85189 11.9991C2.85189 10.8967 3.06586 9.83268 3.48871 8.82747C3.89627 7.85808 4.48215 6.98588 5.2285 6.23645C5.97485 5.48702 6.84348 4.89874 7.8089 4.48949C8.80743 4.0649 9.87219 3.85005 10.9675 3.85005C12.0654 3.85005 13.1276 4.0649 14.1261 4.48949C15.0916 4.89874 15.9602 5.48702 16.7065 6.23645C17.1396 6.67127 17.5166 7.14702 17.8401 7.66113C17.9165 7.7839 18.0515 7.85808 18.1942 7.85808H19.6665C19.8422 7.85808 19.9543 7.67392 19.8754 7.51789C18.2145 4.20046 14.847 2.04426 11.0872 2.00078C5.58257 1.93172 1.01021 6.45642 1.00002 11.9787C0.989828 17.5111 5.45521 22 10.965 22C14.7732 22 18.1967 19.8361 19.8754 16.4803C19.9543 16.3243 19.8397 16.1401 19.6665 16.1401V16.1401Z" fill="black"/>
</svg>
