<svg width="24" height="24" viewBox="0 0 24 24" fill="none" xmlns="http://www.w3.org/2000/svg">
<path d="M23.0529 16.5966H7.12161L7.92152 14.9358L21.2124 14.9112C21.6618 14.9112 22.047 14.584 22.1273 14.1313L23.9679 3.62898C24.0161 3.35354 23.9438 3.06991 23.7673 2.85447C23.68 2.74844 23.5711 2.66303 23.4483 2.60416C23.3254 2.5453 23.1914 2.51439 23.0556 2.51357L6.14781 2.4563L6.00334 1.7636C5.91238 1.3218 5.52179 1 5.07769 1H0.944376C0.693912 1 0.453706 1.10143 0.276601 1.28196C0.0994965 1.4625 0 1.70737 0 1.96269C0 2.21801 0.0994965 2.46287 0.276601 2.64341C0.453706 2.82395 0.693912 2.92538 0.944376 2.92538H4.31256L4.94393 5.98525L6.49827 13.6567L4.49716 16.9866C4.39324 17.1296 4.33064 17.2994 4.31646 17.4767C4.30228 17.6541 4.33707 17.832 4.4169 17.9902C4.57742 18.3147 4.90113 18.5193 5.25961 18.5193H6.93969C6.58152 19.0042 6.38806 19.5949 6.38859 20.2019C6.38859 21.7455 7.61922 23 9.13343 23C10.6476 23 11.8783 21.7455 11.8783 20.2019C11.8783 19.5938 11.6803 19.002 11.3272 18.5193H15.6371C15.2789 19.0042 15.0854 19.5949 15.0859 20.2019C15.0859 21.7455 16.3166 23 17.8308 23C19.345 23 20.5756 21.7455 20.5756 20.2019C20.5756 19.5938 20.3777 19.002 20.0245 18.5193H23.0556C23.5746 18.5193 24 18.0884 24 17.5566C23.9984 17.3015 23.898 17.0575 23.7206 16.8776C23.5432 16.6978 23.3032 16.5968 23.0529 16.5966ZM6.54108 4.35441L21.9454 4.40622L20.4365 13.0186L8.33619 13.0404L6.54108 4.35441ZM9.13343 21.0637C8.66793 21.0637 8.28804 20.6765 8.28804 20.2019C8.28804 19.7274 8.66793 19.3402 9.13343 19.3402C9.59893 19.3402 9.97882 19.7274 9.97882 20.2019C9.97882 20.4305 9.88975 20.6497 9.73121 20.8113C9.57267 20.9729 9.35764 21.0637 9.13343 21.0637ZM17.8308 21.0637C17.3653 21.0637 16.9854 20.6765 16.9854 20.2019C16.9854 19.7274 17.3653 19.3402 17.8308 19.3402C18.2963 19.3402 18.6762 19.7274 18.6762 20.2019C18.6762 20.4305 18.5871 20.6497 18.4286 20.8113C18.27 20.9729 18.055 21.0637 17.8308 21.0637Z" fill="black"/>
</svg>
