<svg width="24" height="24" viewBox="0 0 24 24" fill="none" xmlns="http://www.w3.org/2000/svg">
<path d="M24 11.3139C24 17.0101 18.627 21.6278 12 21.6278C10.8115 21.6294 9.62788 21.4778 8.4795 21.177C7.6035 21.6131 5.592 22.45 2.208 22.9952C1.908 23.0423 1.68 22.7358 1.7985 22.4618C2.3295 21.23 2.8095 19.5886 2.9535 18.0916C1.116 16.2793 0 13.9071 0 11.3139C0 5.61769 5.373 1 12 1C18.627 1 24 5.61769 24 11.3139ZM6.75 6.89367C6.55109 6.89367 6.36032 6.97128 6.21967 7.10944C6.07902 7.2476 6 7.43499 6 7.63037C6 7.82576 6.07902 8.01315 6.21967 8.15131C6.36032 8.28947 6.55109 8.36708 6.75 8.36708H17.25C17.4489 8.36708 17.6397 8.28947 17.7803 8.15131C17.921 8.01315 18 7.82576 18 7.63037C18 7.43499 17.921 7.2476 17.7803 7.10944C17.6397 6.97128 17.4489 6.89367 17.25 6.89367H6.75ZM6.75 10.5772C6.55109 10.5772 6.36032 10.6548 6.21967 10.793C6.07902 10.9311 6 11.1185 6 11.3139C6 11.5093 6.07902 11.6967 6.21967 11.8348C6.36032 11.973 6.55109 12.0506 6.75 12.0506H17.25C17.4489 12.0506 17.6397 11.973 17.7803 11.8348C17.921 11.6967 18 11.5093 18 11.3139C18 11.1185 17.921 10.9311 17.7803 10.793C17.6397 10.6548 17.4489 10.5772 17.25 10.5772H6.75ZM6.75 14.2607C6.55109 14.2607 6.36032 14.3384 6.21967 14.4765C6.07902 14.6147 6 14.8021 6 14.9975C6 15.1928 6.07902 15.3802 6.21967 15.5184C6.36032 15.6566 6.55109 15.7342 6.75 15.7342H12.75C12.9489 15.7342 13.1397 15.6566 13.2803 15.5184C13.421 15.3802 13.5 15.1928 13.5 14.9975C13.5 14.8021 13.421 14.6147 13.2803 14.4765C13.1397 14.3384 12.9489 14.2607 12.75 14.2607H6.75Z" fill="black"/>
</svg>
