<svg width="24" height="24" viewBox="0 0 24 24" fill="none" xmlns="http://www.w3.org/2000/svg">
<path d="M12 5.59998C11.2089 5.59998 10.4355 5.83457 9.77772 6.2741C9.11992 6.71362 8.60723 7.33834 8.30448 8.06924C8.00173 8.80015 7.92252 9.60441 8.07686 10.3803C8.2312 11.1563 8.61216 11.869 9.17157 12.4284C9.73098 12.9878 10.4437 13.3688 11.2196 13.5231C11.9956 13.6775 12.7998 13.5982 13.5307 13.2955C14.2616 12.9927 14.8864 12.4801 15.3259 11.8223C15.7654 11.1645 16 10.3911 16 9.59997C16 8.53911 15.5786 7.52169 14.8284 6.77155C14.0783 6.0214 13.0609 5.59998 12 5.59998ZM12 12C11.5253 12 11.0613 11.8592 10.6666 11.5955C10.272 11.3318 9.96434 10.957 9.78269 10.5184C9.60104 10.0799 9.55351 9.59731 9.64612 9.13176C9.73872 8.6662 9.9673 8.23856 10.3029 7.90292C10.6386 7.56727 11.0662 7.33869 11.5318 7.24609C11.9973 7.15349 12.4799 7.20101 12.9184 7.38266C13.357 7.56431 13.7318 7.87193 13.9955 8.26661C14.2592 8.66128 14.4 9.1253 14.4 9.59997C14.3994 10.2363 14.1463 10.8464 13.6964 11.2963C13.2464 11.7463 12.6363 11.9993 12 12Z" fill="black"/>
<path d="M12 0C9.62663 0 7.30655 0.703788 5.33316 2.02236C3.35977 3.34094 1.8217 5.21508 0.913451 7.4078C0.0051994 9.60051 -0.232441 12.0133 0.230582 14.3411C0.693605 16.6689 1.83649 18.807 3.51472 20.4853C5.19295 22.1635 7.33115 23.3064 9.65892 23.7694C11.9867 24.2324 14.3995 23.9948 16.5922 23.0865C18.7849 22.1783 20.6591 20.6402 21.9776 18.6668C23.2962 16.6934 24 14.3734 24 12C23.9964 8.81851 22.7309 5.76838 20.4813 3.51873C18.2316 1.26908 15.1815 0.00362976 12 0ZM6.85715 20.8946V19.7143C6.85783 19.0325 7.12896 18.3788 7.61105 17.8968C8.09314 17.4147 8.7468 17.1435 9.42858 17.1429H14.5714C15.2532 17.1435 15.9069 17.4147 16.389 17.8968C16.871 18.3788 17.1422 19.0325 17.1429 19.7143V20.8946C15.5821 21.8059 13.8073 22.2861 12 22.2861C10.1927 22.2861 8.41786 21.8059 6.85715 20.8946ZM18.8503 19.6509C18.8332 18.5266 18.3751 17.454 17.5748 16.6642C16.7744 15.8744 15.6958 15.4307 14.5714 15.4286H9.42858C8.30416 15.4307 7.22558 15.8744 6.42522 16.6642C5.62487 17.454 5.1668 18.5266 5.14972 19.6509C3.59535 18.2629 2.4992 16.4356 2.00643 14.4109C1.51367 12.3861 1.64752 10.2594 2.39027 8.31245C3.13301 6.36546 4.44962 4.69 6.16575 3.50791C7.88188 2.32583 9.91658 1.69288 12.0004 1.69288C14.0843 1.69288 16.119 2.32583 17.8351 3.50791C19.5512 4.69 20.8678 6.36546 21.6106 8.31245C22.3533 10.2594 22.4872 12.3861 21.9944 14.4109C21.5017 16.4356 20.4055 18.2629 18.8511 19.6509H18.8503Z" fill="black"/>
</svg>
