<svg width="24" height="24" viewBox="0 0 24 24" fill="none" xmlns="http://www.w3.org/2000/svg">
<path d="M16.4282 17.225C16.1987 16.9602 16.0839 16.6595 16.0839 16.323C16.0839 15.9873 16.1987 15.7074 16.4282 15.4833L18.744 13.2222H9.76245C9.40778 13.2222 9.11069 13.1049 8.87118 12.8702C8.63084 12.6364 8.51067 12.3463 8.51067 12C8.51067 11.6537 8.63084 11.3632 8.87118 11.1286C9.11069 10.8947 9.40778 10.7778 9.76245 10.7778H18.744L16.4282 8.51667C16.1778 8.27222 16.0526 7.98215 16.0526 7.64644C16.0526 7.30993 16.1778 7.01944 16.4282 6.775C16.6577 6.53056 16.9447 6.40833 17.2894 6.40833C17.6332 6.40833 17.9199 6.52037 18.1494 6.74444L22.6558 11.1444C22.7809 11.2667 22.8698 11.3991 22.9224 11.5417C22.9741 11.6843 23 11.837 23 12C23 12.163 22.9741 12.3157 22.9224 12.4583C22.8698 12.6009 22.7809 12.7333 22.6558 12.8556L18.1494 17.2556C17.8781 17.5204 17.5811 17.6373 17.2581 17.6063C16.9343 17.5762 16.6577 17.4491 16.4282 17.225ZM3.50356 23C2.81508 23 2.22549 22.7609 1.73479 22.2826C1.24493 21.8034 1 21.2278 1 20.5556V3.44444C1 2.77222 1.24493 2.19656 1.73479 1.71744C2.22549 1.23915 2.81508 1 3.50356 1H11.0142C11.3689 1 11.6664 1.11693 11.9067 1.35078C12.1462 1.58544 12.266 1.87593 12.266 2.22222C12.266 2.56852 12.1462 2.85859 11.9067 3.09244C11.6664 3.32711 11.3689 3.44444 11.0142 3.44444H3.50356V20.5556H11.0142C11.3689 20.5556 11.6664 20.6729 11.9067 20.9076C12.1462 21.1414 12.266 21.4315 12.266 21.7778C12.266 22.1241 12.1462 22.4141 11.9067 22.648C11.6664 22.8827 11.3689 23 11.0142 23H3.50356Z" fill="black"/>
</svg>
