<svg width="24" height="24" viewBox="0 0 24 24" fill="none" xmlns="http://www.w3.org/2000/svg">
<path d="M12 1C8.89838 1 6.375 3.4673 6.375 6.5V8.7H5.25C4.00912 8.7 3 9.6867 3 10.9V20.8C3 22.0133 4.00912 23 5.25 23H18.75C19.9909 23 21 22.0133 21 20.8V10.9C21 9.6867 19.9909 8.7 18.75 8.7H17.625V6.5C17.625 3.4673 15.1016 1 12 1ZM8.625 6.5C8.625 4.6806 10.1393 3.2 12 3.2C13.8608 3.2 15.375 4.6806 15.375 6.5V8.7H8.625V6.5ZM18.7523 20.8H13.125V18.2942C13.7944 17.9125 14.25 17.2107 14.25 16.4C14.25 15.1867 13.2409 14.2 12 14.2C10.7591 14.2 9.75 15.1867 9.75 16.4C9.75 17.2096 10.2056 17.9125 10.875 18.2942V20.8H5.25V10.9H18.75L18.7523 20.8Z" fill="black"/>
</svg>
