<svg width="24" height="24" viewBox="0 0 24 24" fill="none" xmlns="http://www.w3.org/2000/svg">
<path d="M12 4.8C12.3183 4.8 12.6235 4.67357 12.8485 4.44853C13.0736 4.22348 13.2 3.91826 13.2 3.6V1.2C13.2 0.88174 13.0736 0.576515 12.8485 0.351472C12.6235 0.126428 12.3183 0 12 0C11.6817 0 11.3765 0.126428 11.1515 0.351472C10.9264 0.576515 10.8 0.88174 10.8 1.2V3.6C10.8 3.91826 10.9264 4.22348 11.1515 4.44853C11.3765 4.67357 11.6817 4.8 12 4.8ZM22.8 10.8H20.4C20.0817 10.8 19.7765 10.9264 19.5515 11.1515C19.3264 11.3765 19.2 11.6817 19.2 12C19.2 12.3183 19.3264 12.6235 19.5515 12.8485C19.7765 13.0736 20.0817 13.2 20.4 13.2H22.8C23.1183 13.2 23.4235 13.0736 23.6485 12.8485C23.8736 12.6235 24 12.3183 24 12C24 11.6817 23.8736 11.3765 23.6485 11.1515C23.4235 10.9264 23.1183 10.8 22.8 10.8ZM4.8 12C4.8 11.6817 4.67357 11.3765 4.44853 11.1515C4.22348 10.9264 3.91826 10.8 3.6 10.8H1.2C0.88174 10.8 0.576515 10.9264 0.351472 11.1515C0.126428 11.3765 0 11.6817 0 12C0 12.3183 0.126428 12.6235 0.351472 12.8485C0.576515 13.0736 0.88174 13.2 1.2 13.2H3.6C3.91826 13.2 4.22348 13.0736 4.44853 12.8485C4.67357 12.6235 4.8 12.3183 4.8 12ZM5.064 3.6C4.83008 3.37881 4.51787 3.2596 4.19606 3.2686C3.87425 3.27761 3.56919 3.41408 3.348 3.648C3.12681 3.88192 3.0076 4.19413 3.0166 4.51594C3.02561 4.83775 3.16208 5.14281 3.396 5.364L5.124 7.032C5.23996 7.14397 5.3773 7.23143 5.5278 7.28916C5.67831 7.34689 5.8389 7.3737 6 7.368C6.16165 7.36738 6.3215 7.33411 6.46997 7.27019C6.61844 7.20626 6.75246 7.113 6.864 6.996C7.0875 6.77117 7.21295 6.46702 7.21295 6.15C7.21295 5.83298 7.0875 5.52884 6.864 5.304L5.064 3.6ZM18 7.368C18.309 7.36677 18.6055 7.24642 18.828 7.032L20.556 5.364C20.7668 5.14374 20.8859 4.8515 20.889 4.54664C20.8921 4.24178 20.7791 3.94716 20.5729 3.7226C20.3667 3.49805 20.0827 3.36041 19.7787 3.33764C19.4747 3.31487 19.1734 3.40867 18.936 3.6L17.208 5.304C16.9845 5.52884 16.8591 5.83298 16.8591 6.15C16.8591 6.46702 16.9845 6.77117 17.208 6.996C17.4158 7.21526 17.6986 7.3481 18 7.368ZM12 19.2C11.6817 19.2 11.3765 19.3264 11.1515 19.5515C10.9264 19.7765 10.8 20.0817 10.8 20.4V22.8C10.8 23.1183 10.9264 23.4235 11.1515 23.6485C11.3765 23.8736 11.6817 24 12 24C12.3183 24 12.6235 23.8736 12.8485 23.6485C13.0736 23.4235 13.2 23.1183 13.2 22.8V20.4C13.2 20.0817 13.0736 19.7765 12.8485 19.5515C12.6235 19.3264 12.3183 19.2 12 19.2ZM18.876 16.968C18.6469 16.7468 18.3392 16.6257 18.0208 16.6313C17.7024 16.637 17.3992 16.7689 17.178 16.998C16.9568 17.2271 16.8357 17.5348 16.8413 17.8532C16.847 18.1717 16.9789 18.4748 17.208 18.696L18.936 20.4C19.1585 20.6144 19.455 20.7348 19.764 20.736C19.9248 20.7369 20.0841 20.7056 20.2325 20.6437C20.381 20.5819 20.5155 20.4908 20.628 20.376C20.7405 20.2644 20.8297 20.1317 20.8907 19.9855C20.9516 19.8393 20.983 19.6824 20.983 19.524C20.983 19.3656 20.9516 19.2087 20.8907 19.0625C20.8297 18.9163 20.7405 18.7836 20.628 18.672L18.876 16.968ZM5.124 16.968L3.396 18.636C3.28353 18.7476 3.19425 18.8803 3.13333 19.0265C3.07241 19.1727 3.04104 19.3296 3.04104 19.488C3.04104 19.6464 3.07241 19.8033 3.13333 19.9495C3.19425 20.0957 3.28353 20.2284 3.396 20.34C3.50855 20.4548 3.64303 20.5459 3.79145 20.6077C3.93988 20.6696 4.09921 20.7009 4.26 20.7C4.55582 20.7025 4.84214 20.5957 5.064 20.4L6.792 18.732C7.02115 18.5108 7.15304 18.2077 7.15867 17.8892C7.16429 17.5708 7.04319 17.2631 6.822 17.034C6.60081 16.8049 6.29765 16.673 5.97921 16.6673C5.66078 16.6617 5.35315 16.7828 5.124 17.004V16.968ZM12 7.2C11.0507 7.2 10.1226 7.48152 9.33326 8.00895C8.54391 8.53638 7.92868 9.28603 7.56538 10.1631C7.20208 11.0402 7.10702 12.0053 7.29223 12.9364C7.47744 13.8675 7.9346 14.7228 8.60589 15.3941C9.27718 16.0654 10.1325 16.5226 11.0636 16.7078C11.9947 16.893 12.9598 16.7979 13.8369 16.4346C14.714 16.0713 15.4636 15.4561 15.9911 14.6667C16.5185 13.8774 16.8 12.9494 16.8 12C16.8 10.727 16.2943 9.50606 15.3941 8.60589C14.4939 7.70571 13.273 7.2 12 7.2ZM12 14.4C11.5253 14.4 11.0613 14.2592 10.6666 13.9955C10.272 13.7318 9.96434 13.357 9.78269 12.9184C9.60104 12.4799 9.55351 11.9973 9.64612 11.5318C9.73872 11.0662 9.9673 10.6386 10.3029 10.3029C10.6386 9.9673 11.0662 9.73872 11.5318 9.64612C11.9973 9.55351 12.4799 9.60104 12.9184 9.78269C13.357 9.96434 13.7318 10.272 13.9955 10.6666C14.2592 11.0613 14.4 11.5253 14.4 12C14.4 12.6365 14.1471 13.247 13.6971 13.6971C13.247 14.1471 12.6365 14.4 12 14.4Z" fill="black"/>
</svg>
