<svg width="24" height="24" viewBox="0 0 24 24" fill="none" xmlns="http://www.w3.org/2000/svg">
<path d="M20.7281 14.112C20.8695 13.9804 21.0577 13.9077 21.2529 13.9091C21.4481 13.9105 21.6351 13.9861 21.7744 14.1197C21.9138 14.2533 21.9945 14.4347 21.9997 14.6254C22.0048 14.8162 21.934 15.0014 21.8021 15.1421L17.7974 20.0376C17.7285 20.1101 17.6454 20.1682 17.553 20.2086C17.4606 20.249 17.3609 20.2708 17.2597 20.2726C17.1585 20.2744 17.058 20.2563 16.9641 20.2193C16.8703 20.1823 16.785 20.1271 16.7134 20.0572L14.0577 17.4613C13.9837 17.3939 13.9244 17.3127 13.8833 17.2224C13.8421 17.1322 13.82 17.0348 13.8182 16.936C13.8164 16.8372 13.835 16.739 13.8729 16.6474C13.9108 16.5558 13.9671 16.4726 14.0386 16.4027C14.1101 16.3328 14.1952 16.2777 14.289 16.2407C14.3827 16.2037 14.4831 16.1856 14.5842 16.1873C14.6852 16.189 14.7849 16.2107 14.8772 16.2509C14.9696 16.2911 15.0527 16.3491 15.1216 16.4214L17.2233 18.4747L20.7091 14.1335C20.7153 14.126 20.7221 14.1188 20.7291 14.112H20.7281Z" fill="black"/>
<path d="M11.0909 12.6364L16.5455 9.54547V13C17.1818 13 17.8182 13.0909 18.3637 13.3637V8.00001C18.3637 7.63637 18.1818 7.36364 17.9091 7.18183L10.7273 3.18182C10.5455 3.09091 10.3636 3 10.1818 3C10 3 9.81819 3.09091 9.63638 3.18182L2.45455 7.18183C2.18182 7.36364 2 7.63637 2 8.00001V16.1818C2 16.5455 2.18182 16.8182 2.45455 17L9.63638 21C9.81819 21.0909 10 21.1818 10.1818 21.1818C10.3636 21.1818 10.5455 21.0909 10.7273 21L11.5455 20.5455C11.2727 20 11.1818 19.3637 11.0909 18.7273V12.6364ZM10.1818 5L15.6364 8.00001L13.8182 9.00001L8.45456 5.9091L10.1818 5ZM9.27274 18.7273L3.81818 15.6364V9.54547L9.27274 12.6364V18.7273ZM10.1818 11L4.72728 8.00001L6.54546 6.9091L12 10.0909L10.1818 11Z" fill="black"/>
</svg>
