<svg width="24" height="24" viewBox="0 0 24 24" fill="none" xmlns="http://www.w3.org/2000/svg">
<path d="M2.49998 11.4999H11.4998V12.9998H2.49998V11.4999ZM1 7.74992H8.49989V9.2499H1V7.74992Z" fill="black"/>
<path d="M21.9392 11.9544L19.6893 6.70446C19.6315 6.56952 19.5354 6.45451 19.4129 6.37372C19.2904 6.29292 19.1468 6.24989 19 6.24997H16.7501V4.74999C16.7501 4.55108 16.671 4.36032 16.5304 4.21967C16.3897 4.07902 16.199 4 16.0001 4H4.00024V5.49998H15.2501V14.9168C14.9083 15.1153 14.6092 15.3794 14.3701 15.694C14.1309 16.0086 13.9564 16.3674 13.8566 16.7498H9.14367C8.96112 16.0428 8.527 15.4267 7.92268 15.0169C7.31835 14.6071 6.58531 14.4318 5.86096 14.5238C5.13661 14.6158 4.47068 14.9688 3.988 15.5167C3.50531 16.0645 3.23901 16.7696 3.23901 17.4998C3.23901 18.23 3.50531 18.9351 3.988 19.4829C4.47068 20.0308 5.13661 20.3838 5.86096 20.4759C6.58531 20.5679 7.31835 20.3925 7.92268 19.9827C8.527 19.5729 8.96112 18.9568 9.14367 18.2498H13.8566C14.0197 18.8935 14.3929 19.4644 14.9169 19.8721C15.441 20.2799 16.086 20.5014 16.7501 20.5014C17.4141 20.5014 18.0591 20.2799 18.5832 19.8721C19.1072 19.4644 19.4804 18.8935 19.6435 18.2498H21.25C21.4489 18.2498 21.6397 18.1708 21.7803 18.0301C21.921 17.8895 22 17.6987 22 17.4998V12.2499C22 12.1483 21.9793 12.0477 21.9392 11.9544V11.9544ZM6.25021 18.9998C5.95354 18.9998 5.66353 18.9118 5.41686 18.747C5.17019 18.5822 4.97794 18.3479 4.86441 18.0738C4.75088 17.7997 4.72117 17.4981 4.77905 17.2072C4.83693 16.9162 4.97979 16.6489 5.18956 16.4392C5.39934 16.2294 5.66661 16.0865 5.95758 16.0286C6.24854 15.9708 6.55014 16.0005 6.82422 16.114C7.09831 16.2275 7.33257 16.4198 7.49739 16.6665C7.66221 16.9131 7.75019 17.2031 7.75019 17.4998C7.74979 17.8975 7.59163 18.2788 7.31041 18.56C7.0292 18.8412 6.6479 18.9994 6.25021 18.9998V18.9998ZM16.7501 7.74995H18.505L20.113 11.4999H16.7501V7.74995ZM16.7501 18.9998C16.4534 18.9998 16.1634 18.9118 15.9167 18.747C15.67 18.5822 15.4778 18.3479 15.3643 18.0738C15.2507 17.7997 15.221 17.4981 15.2789 17.2072C15.3368 16.9162 15.4796 16.6489 15.6894 16.4392C15.8992 16.2294 16.1665 16.0865 16.4574 16.0286C16.7484 15.9708 17.05 16.0005 17.3241 16.114C17.5982 16.2275 17.8324 16.4198 17.9972 16.6665C18.1621 16.9131 18.25 17.2031 18.25 17.4998C18.2496 17.8975 18.0915 18.2788 17.8103 18.56C17.529 18.8412 17.1478 18.9994 16.7501 18.9998ZM20.5 16.7498H19.6435C19.4783 16.1074 19.1046 15.538 18.581 15.1308C18.0573 14.7236 17.4134 14.5017 16.7501 14.4998V12.9999H20.5V16.7498Z" fill="black"/>
</svg>
