<svg width="24" height="24" viewBox="0 0 24 24" fill="none" xmlns="http://www.w3.org/2000/svg">
<path d="M2.77895 14.5L2.02105 13H7.32632L6.72 11.5H1.76842L1.01053 10H8.89263L8.28632 8.5H0.869053L0 7H3.78947C3.78947 6.46957 4.00241 5.96086 4.38143 5.58579C4.76045 5.21071 5.27451 5 5.81053 5H17.9368V9H20.9684L24 13V18H21.9789C21.9789 18.7956 21.6595 19.5587 21.091 20.1213C20.5225 20.6839 19.7514 21 18.9474 21C18.1433 21 17.3722 20.6839 16.8037 20.1213C16.2352 19.5587 15.9158 18.7956 15.9158 18H11.8737C11.8737 18.7956 11.5543 19.5587 10.9858 20.1213C10.4172 20.6839 9.64613 21 8.84211 21C8.03808 21 7.26699 20.6839 6.69846 20.1213C6.12992 19.5587 5.81053 18.7956 5.81053 18H3.78947V14.5H2.77895ZM18.9474 19.5C19.3494 19.5 19.7349 19.342 20.0192 19.0607C20.3035 18.7794 20.4632 18.3978 20.4632 18C20.4632 17.6022 20.3035 17.2206 20.0192 16.9393C19.7349 16.658 19.3494 16.5 18.9474 16.5C18.5454 16.5 18.1598 16.658 17.8755 16.9393C17.5913 17.2206 17.4316 17.6022 17.4316 18C17.4316 18.3978 17.5913 18.7794 17.8755 19.0607C18.1598 19.342 18.5454 19.5 18.9474 19.5ZM20.4632 10.5H17.9368V13H22.4438L20.4632 10.5ZM8.84211 19.5C9.24412 19.5 9.62966 19.342 9.91393 19.0607C10.1982 18.7794 10.3579 18.3978 10.3579 18C10.3579 17.6022 10.1982 17.2206 9.91393 16.9393C9.62966 16.658 9.24412 16.5 8.84211 16.5C8.44009 16.5 8.05455 16.658 7.77028 16.9393C7.48601 17.2206 7.32632 17.6022 7.32632 18C7.32632 18.3978 7.48601 18.7794 7.77028 19.0607C8.05455 19.342 8.44009 19.5 8.84211 19.5Z" fill="black"/>
</svg>
