<svg width="24" height="24" viewBox="0 0 24 24" fill="none" xmlns="http://www.w3.org/2000/svg">
<path d="M9.25075 1.38135C9.38498 1.54446 9.46722 1.74407 9.48683 1.9544C9.50644 2.16472 9.46252 2.3761 9.36076 2.56121C8.56574 4.02087 8.15056 5.65702 8.1534 7.31914C8.1534 12.8485 12.6611 17.3259 18.2166 17.3259C18.9413 17.3259 19.6467 17.2503 20.3246 17.1059C20.5325 17.0609 20.7489 17.0781 20.947 17.1554C21.1451 17.2327 21.316 17.3666 21.4385 17.5404C21.5677 17.7212 21.6336 17.9396 21.6259 18.1617C21.6182 18.3838 21.5373 18.5971 21.3959 18.7684C20.3173 20.0933 18.9567 21.1607 17.4133 21.893C15.8698 22.6252 14.1824 23.0038 12.474 23.0011C6.13472 23.0011 1 17.8939 1 11.6013C1 6.86535 3.90701 2.80323 8.04614 1.08158C8.25232 0.994436 8.48122 0.976551 8.69843 1.03061C8.91565 1.08466 9.10946 1.20774 9.25075 1.38135ZM7.68036 2.80186C6.08879 3.65557 4.75827 4.92456 3.83019 6.47394C2.90211 8.02332 2.41115 9.79521 2.4095 11.6013C2.4095 17.1293 6.91854 21.6067 12.474 21.6067C13.8044 21.609 15.122 21.3474 16.3506 20.8371C17.5792 20.3268 18.6944 19.5779 19.6316 18.6337C19.1682 18.6914 18.6965 18.7203 18.2166 18.7203C11.8772 18.7203 6.7439 13.6131 6.7439 7.32052C6.7439 5.71575 7.07668 4.18798 7.68036 2.80186Z" fill="black"/>
<path d="M15.8432 5.32787C15.8629 5.26832 15.9009 5.2165 15.9517 5.17977C16.0026 5.14304 16.0637 5.12327 16.1265 5.12327C16.1892 5.12327 16.2503 5.14304 16.3012 5.17977C16.352 5.2165 16.39 5.26832 16.4097 5.32787L16.9419 6.92577C17.1798 7.63808 17.7381 8.19638 18.4504 8.43428L20.0483 8.96645C20.1079 8.98617 20.1597 9.02416 20.1964 9.07501C20.2331 9.12586 20.2529 9.187 20.2529 9.24973C20.2529 9.31246 20.2331 9.3736 20.1964 9.42445C20.1597 9.4753 20.1079 9.51329 20.0483 9.53301L18.4504 10.0652C18.0991 10.1822 17.7799 10.3795 17.518 10.6413C17.2562 10.9032 17.059 11.2224 16.9419 11.5737L16.4097 13.1716C16.39 13.2311 16.352 13.283 16.3012 13.3197C16.2503 13.3564 16.1892 13.3762 16.1265 13.3762C16.0637 13.3762 16.0026 13.3564 15.9517 13.3197C15.9009 13.283 15.8629 13.2311 15.8432 13.1716L15.311 11.5737C15.194 11.2224 14.9967 10.9032 14.7349 10.6413C14.473 10.3795 14.1538 10.1822 13.8025 10.0652L12.2046 9.53301C12.1451 9.51329 12.0932 9.4753 12.0565 9.42445C12.0198 9.3736 12 9.31246 12 9.24973C12 9.187 12.0198 9.12586 12.0565 9.07501C12.0932 9.02416 12.1451 8.98617 12.2046 8.96645L13.8025 8.43428C14.1538 8.31723 14.473 8.11998 14.7349 7.85814C14.9967 7.5963 15.194 7.27708 15.311 6.92577L15.8432 5.32787ZM20.0634 1.13512C20.077 1.09596 20.1025 1.06201 20.1362 1.03798C20.17 1.01395 20.2104 1.00104 20.2518 1.00104C20.2933 1.00104 20.3337 1.01395 20.3674 1.03798C20.4012 1.06201 20.4267 1.09596 20.4402 1.13512L20.795 2.19946C20.9531 2.67526 21.3258 3.04791 21.8016 3.20605L22.8659 3.56084C22.9051 3.57441 22.9391 3.59985 22.9631 3.63361C22.9871 3.66738 23 3.70779 23 3.74923C23 3.79067 22.9871 3.83108 22.9631 3.86485C22.9391 3.89861 22.9051 3.92405 22.8659 3.93762L21.8016 4.2924C21.5671 4.3704 21.3541 4.502 21.1793 4.67673C21.0046 4.85146 20.873 5.06452 20.795 5.299L20.4402 6.36334C20.4267 6.4025 20.4012 6.43645 20.3674 6.46048C20.3337 6.48451 20.2933 6.49742 20.2518 6.49742C20.2104 6.49742 20.17 6.48451 20.1362 6.46048C20.1025 6.43645 20.077 6.4025 20.0634 6.36334L19.7087 5.299C19.6307 5.06452 19.4991 4.85146 19.3243 4.67673C19.1496 4.502 18.9365 4.3704 18.7021 4.2924L17.6377 3.93762C17.5986 3.92405 17.5646 3.89861 17.5406 3.86485C17.5166 3.83108 17.5036 3.79067 17.5036 3.74923C17.5036 3.70779 17.5166 3.66738 17.5406 3.63361C17.5646 3.59985 17.5986 3.57441 17.6377 3.56084L18.7021 3.20605C19.1779 3.04791 19.5505 2.67526 19.7087 2.19946L20.0634 1.13649V1.13512Z" fill="black"/>
</svg>
