<svg width="24" height="24" viewBox="0 0 24 24" fill="none" xmlns="http://www.w3.org/2000/svg">
<path d="M12.286 21.614L10.9 23L9.25 21.35L7.6 23L5.95 21.35L4.3 23L2.65 21.35L1 23V1L2.65 2.65L4.3 1L5.95 2.65L7.6 1L9.25 2.65L10.9 1L12.55 2.65L14.2 1L15.85 2.65L17.5 1L19.15 2.65L20.8 1V13.485C20.107 13.243 19.37 13.1 18.6 13.1V4.201H3.2V19.799H12C12 20.426 12.11 21.042 12.286 21.614ZM4.3 15.3V17.5H12.385C12.671 16.675 13.1 15.938 13.694 15.3H4.3ZM4.3 13.1H17.5V10.9H4.3V13.1ZM4.3 8.7H17.5V6.5H4.3V8.7ZM23 17.753L21.724 16.202L17.775 20.151L16.026 18.402L14.75 19.7L17.775 23" fill="black"/>
</svg>
